<svg xmlns="http://www.w3.org/2000/svg" version="1.1" width="512" height="512" x="0" y="0" viewBox="0 0 512 512"
     style="enable-background:new 0 0 512 512" xml:space="preserve">
    <g>
        <path fill="#ffb456" d="M512 256c0 141.387-114.613 256-256 256S0 397.387 0 256 114.613 0 256 0s256 114.613 256 256zm0 0"></path>
        <path fill="#f47f31" d="M31.484 379.074C75.004 458.297 159.227 512 256 512s180.996-53.703 224.516-132.926zm0 0"></path>
        <path fill="#ea7424"
              d="M247.547 379.074H31.484C73.141 454.906 152.09 507.348 243.644 511.7c-85.71-4.297-82.128-132.625 3.903-132.625zm0 0"></path>
        <path fill="#58596c"
              d="M443.008 46.77h-334.54C42.853 93.12 0 169.555 0 256c0 59.313 20.18 113.91 54.04 157.316h388.968c18.344 0 33.265-14.925 33.265-33.27V80.04c0-18.344-14.925-33.27-33.265-33.27zm0 0"></path>
        <path fill="#484a5e"
              d="M61.531 380.05V89.52C23.171 134.277 0 192.434 0 256c0 59.312 20.18 113.91 54.04 157.316h40.757c-18.344 0-33.266-14.921-33.266-33.265zm0 0"></path>
        <path fill="#7da8ff"
              d="M0 256c0 44.46 11.34 86.27 31.277 122.707H438.32a3.343 3.343 0 0 0 3.344-3.344V84.723a3.343 3.343 0 0 0-3.344-3.344H68.824C26.137 127.117 0 188.5 0 256zm0 0"></path>
        <path fill="#5085fe" d="M0 256c0 43.113 10.738 85.176 31.277 122.707h30.254V89.547C21.695 136.039 0 194.703 0 256zm0 0"></path>
        <path fill="#5085fe"
              d="M31.277 133.293h410.387v-48.57a3.343 3.343 0 0 0-3.344-3.344H68.824a256.96 256.96 0 0 0-37.547 51.914zm0 0"></path>
        <path fill="#3c78ef" d="M31.293 133.293h30.238V89.578c-11.695 13.649-21.668 28.063-30.238 43.715zm0 0"></path>
        <path fill="#ecebed"
              d="M497.012 413.316H54.039a257.533 257.533 0 0 0 54.43 51.914h344.21c26.829 0 48.575-21.746 48.575-48.574 0-1.844-1.899-3.34-4.242-3.34zm0 0"></path>
        <path fill="#d4d1da"
              d="M184.96 416.656c0-1.844 1.9-3.34 4.243-3.34H54.04a257.533 257.533 0 0 0 54.43 51.914H233.53c-26.824 0-48.57-21.746-48.57-48.574zm0 0"></path>
        <path fill="#7da8ff"
              d="M68.82 116.402c-4.847 0-9.066-3.925-9.066-9.062 0-4.426 3.203-8.106 7.289-8.883 5.543-1.113 10.84 3.11 10.84 8.883 0 5.113-4.176 9.062-9.063 9.062zM97.016 116.402a9.07 9.07 0 0 1-8.883-7.3c-1.297-6.235 4.308-11.95 10.66-10.645 4.121.785 7.289 4.484 7.289 8.883 0 5.05-4.117 9.062-9.066 9.062zm0 0"></path>
        <path fill="#6d6d7c"
              d="M394.246 396.012H46.496a7.884 7.884 0 0 0-4.082 1.136 256.54 256.54 0 0 0 11.625 16.168h348.152v-9.363a7.944 7.944 0 0 0-7.945-7.941zm0 0"></path>
        <path fill="#58596c"
              d="M66.89 396.012H46.497a7.884 7.884 0 0 0-4.082 1.136 256.54 256.54 0 0 0 11.625 16.168h4.906v-9.363a7.944 7.944 0 0 1 7.946-7.941zm0 0"></path>
        <path fill="#d4d1da"
              d="M289.137 430.621H151.605a7.947 7.947 0 0 1-7.945-7.945v-9.36h153.422v9.36a7.947 7.947 0 0 1-7.945 7.945zm0 0"></path>
        <path fill="#bcb7c6"
              d="M189.203 413.316H143.66v9.36a7.944 7.944 0 0 0 7.945 7.941h35.403a48.448 48.448 0 0 1-2.047-13.96c0-1.844 1.898-3.34 4.242-3.34zm0 0"></path>
        <path fill="#f9f1e5"
              d="M404.375 349.406H36.367a7.57 7.57 0 0 1-7.57-7.57V170.164a7.57 7.57 0 0 1 7.57-7.57h368.008a7.57 7.57 0 0 1 7.57 7.57v171.672a7.57 7.57 0 0 1-7.57 7.57zm0 0"></path>
        <g fill="#e0ceb3">
            <path
                d="M61.531 341.836V170.164a7.567 7.567 0 0 1 7.57-7.57H36.368c-4.18 0-7.57 3.39-7.57 7.57v171.672a7.57 7.57 0 0 0 7.57 7.57h32.735a7.567 7.567 0 0 1-7.57-7.57zM364.855 282.297H234.477c-5.008 0-9.063-4.055-9.063-9.063s4.059-9.066 9.063-9.066h130.378c5.008 0 9.067 4.059 9.067 9.066s-4.059 9.063-9.067 9.063zM364.855 315.738H234.477c-5.008 0-9.063-4.058-9.063-9.066a9.064 9.064 0 0 1 9.063-9.063h130.378a9.066 9.066 0 1 1 0 18.129zM364.855 248.879H234.477a9.062 9.062 0 0 1-9.063-9.063c0-5.007 4.059-9.066 9.063-9.066h130.378a9.066 9.066 0 1 1 0 18.129zM364.855 215.465H234.477c-5.008 0-9.063-4.059-9.063-9.067a9.062 9.062 0 0 1 9.063-9.062h130.378c5.008 0 9.067 4.055 9.067 9.062a9.066 9.066 0 0 1-9.067 9.067zm0 0"
                fill="#e0ceb3"></path>
        </g>
        <path
            fill="#ff5856"
            d="m193.54 301.07-57.59-99.578c-3.61-6.242-12.622-6.242-16.227 0L62.129 301.07c-3.613 6.246.898 14.063 8.113 14.063h115.184c7.219 0 11.726-7.817 8.113-14.063zm0 0"></path>
        <path fill="#db4040"
              d="m92.73 301.066 50.403-87.148-7.184-12.43c-3.61-6.238-12.62-6.238-16.226 0l-57.594 99.578c-3.613 6.25.898 14.067 8.113 14.067h30.602c-7.219 0-11.727-7.817-8.114-14.067zm0 0"></path>
        <path fill="#ecebed"
              d="M127.832 275.352a7.939 7.939 0 0 1-7.937-7.938v-25.187a7.94 7.94 0 0 1 15.879 0v25.187a7.94 7.94 0 0 1-7.942 7.938zM127.84 296.547a7.943 7.943 0 0 1-7.942-7.942 7.935 7.935 0 0 1 7.934-7.937h.008a7.94 7.94 0 1 1 0 15.879zm0 0"></path>
    </g>
</svg>
